<svg width="89" height="89" viewBox="0 0 89 89" fill="none" xmlns="http://www.w3.org/2000/svg">
<g clip-path="url(#clip0_14524_802)">
<mask id="mask0_14524_802" style="mask-type:luminance" maskUnits="userSpaceOnUse" x="0" y="0" width="89" height="89">
<path d="M89 0H0V89H89V0Z" fill="white"/>
</mask>
<g mask="url(#mask0_14524_802)">
<path fill-rule="evenodd" clip-rule="evenodd" d="M89 43.8429C87.4323 44.2713 85.7822 44.5 84.0787 44.5H64.1837C53.8971 44.5 45.5582 52.8389 45.5582 63.125V85.137C45.5582 86.4613 45.4198 87.7536 45.1573 89C44.7287 87.4323 44.5 85.7822 44.5 84.0787V64.1837C44.5 53.8971 36.1612 45.5582 25.8748 45.5582H3.86314C2.53859 45.5582 1.24632 45.4198 0 45.1573C1.56769 44.7287 3.21782 44.5 4.92139 44.5H24.8165C35.103 44.5 43.4418 36.1612 43.4418 25.8748V3.86313C43.4418 2.53857 43.5801 1.24632 43.8429 0C44.2713 1.56769 44.5 3.21783 44.5 4.92139V24.8165C44.5 35.103 52.8389 43.4418 63.1255 43.4418H85.137C86.4613 43.4418 87.7536 43.5801 89 43.8429Z" fill="#175BCC" fill-opacity="0.12"/>
</g>
</g>
<defs>
<clipPath id="clip0_14524_802">
<rect width="89" height="89" fill="white"/>
</clipPath>
</defs>
</svg>
