<svg width="20" height="45" viewBox="0 0 20 45" fill="none" xmlns="http://www.w3.org/2000/svg">
<path fill-rule="evenodd" clip-rule="evenodd" d="M14.1446 2.51918C13.4067 3.00378 12.3249 4.01933 11.1245 6.14396C10.5906 7.08893 10.347 8.10062 10.3417 9.08311C11.7614 8.113 13.4062 7.51541 15.1515 7.39683C16.6581 7.29446 17.8091 7.66091 18.5818 8.37395C19.3527 9.08539 19.6697 10.0711 19.6491 11.051C19.6086 12.9695 18.2584 15.0857 16.0565 15.5269C13.4863 16.0419 11.3232 14.6933 10.1645 12.6831C9.90381 12.2308 9.69174 11.7421 9.535 11.2293C7.74104 13.0774 6.59669 15.7396 6.64254 18.8265C6.98098 18.7224 7.323 18.636 7.66584 18.5666C9.63839 18.1672 11.6779 18.3194 13.2991 18.8977C14.8933 19.4665 16.2317 20.5109 16.4974 21.999C16.7468 23.3953 16.2552 24.5617 15.3568 25.3626C14.4763 26.1477 13.2292 26.5656 11.9443 26.5802C9.34671 26.6099 6.46593 24.9896 5.75463 21.1639C5.70891 20.918 5.67009 20.6737 5.63797 20.4309C4.72066 20.8887 3.88816 21.5176 3.21507 22.336C2.02721 23.7802 1.29206 25.8673 1.5195 28.7816C1.74794 31.7086 2.71405 33.7856 4.00616 35.2698C5.30333 36.7598 6.95869 37.686 8.61213 38.2563C10.2666 38.827 11.9008 39.0346 13.1268 39.0981C13.3157 39.1079 13.4947 39.1142 13.6621 39.1179L10.9225 36.8765C10.6826 36.6802 10.6472 36.3266 10.8435 36.0867C11.0398 35.8468 11.3934 35.8114 11.6333 36.0077L15.5429 39.2064C15.7828 39.4027 15.8182 39.7563 15.6219 39.9962L12.4232 43.9058C12.2269 44.1457 11.8733 44.1811 11.6334 43.9848C11.3935 43.7885 11.3581 43.4349 11.5544 43.195L13.9683 40.2447C13.7014 40.2434 13.3993 40.2362 13.0687 40.2191C11.7751 40.1521 10.03 39.9328 8.24613 39.3175C6.46114 38.7018 4.61885 37.6832 3.15951 36.0068C1.69509 34.3247 0.645816 32.0138 0.400377 28.869C0.153952 25.7115 0.948383 23.3248 2.34811 21.6229C3.23115 20.5493 4.33756 19.7694 5.53275 19.2404C5.3637 15.4062 6.8718 12.0767 9.26507 9.92869C9.10387 8.50677 9.35808 6.98844 10.1472 5.59177C11.413 3.35142 12.6071 2.18601 13.5284 1.5809C13.9892 1.27831 14.378 1.11845 14.6668 1.03465C14.8108 0.992849 14.9288 0.970304 15.0172 0.958238C15.0614 0.952211 15.098 0.948813 15.1267 0.946927C15.1411 0.945984 15.1534 0.94542 15.1637 0.945094L15.1776 0.944765L15.1834 0.944702L15.186 0.94469L15.1872 0.944688C15.1878 0.944688 15.1884 0.944688 15.1876 1.50595C15.1867 2.06722 15.1873 2.06722 15.1879 2.06722L15.1889 2.06722L15.191 2.06721L15.1945 2.06717L15.1993 2.06706C15.2015 2.06699 15.2019 2.06694 15.2003 2.06704C15.1973 2.06724 15.1867 2.06804 15.1691 2.07046C15.1338 2.07527 15.0696 2.08659 14.9796 2.11271C14.8003 2.16474 14.5135 2.27692 14.1446 2.51918ZM6.71436 19.983C6.74933 20.3045 6.79711 20.6299 6.85825 20.9587C7.46016 24.196 9.825 25.4818 11.9315 25.4578C12.9987 25.4456 13.9683 25.0968 14.6098 24.5248C15.2335 23.9687 15.5694 23.1878 15.3924 22.1963C15.2317 21.2964 14.3653 20.4699 12.9219 19.955C11.5053 19.4496 9.67419 19.3053 7.88862 19.6668C7.49143 19.7472 7.09847 19.8522 6.71436 19.983ZM10.4742 10.3822C10.6058 11.0035 10.8318 11.5929 11.1371 12.1225C12.1066 13.8046 13.8318 14.8278 15.836 14.4262C17.4267 14.1075 18.4952 12.5237 18.5268 11.0273C18.5421 10.2997 18.3085 9.64926 17.8205 9.19888C17.3342 8.75009 16.518 8.4291 15.2276 8.51678C13.4946 8.63453 11.8509 9.29904 10.4742 10.3822Z" fill="#175BCC"/>
</svg>
