<svg width="244" height="244" viewBox="0 0 244 244" fill="none" xmlns="http://www.w3.org/2000/svg">
<g clip-path="url(#clip0_14524_714)">
<mask id="mask0_14524_714" style="mask-type:luminance" maskUnits="userSpaceOnUse" x="0" y="0" width="244" height="244">
<path d="M244 0H0V244H244V0Z" fill="white"/>
</mask>
<g mask="url(#mask0_14524_714)">
<path fill-rule="evenodd" clip-rule="evenodd" d="M134.2 0C140.938 0 146.4 5.46212 146.4 12.2V33.6398C146.4 44.5088 159.541 49.952 167.227 42.2664L182.386 27.1062C187.152 22.3419 194.875 22.3419 199.641 27.1062L216.894 44.3597C221.658 49.124 221.658 56.8487 216.894 61.613L201.733 76.7733C194.048 84.4589 199.491 97.6 210.36 97.6H231.8C238.538 97.6 244 103.062 244 109.8V134.2C244 140.938 238.538 146.4 231.8 146.4H210.36C199.491 146.4 194.048 159.541 201.733 167.227L216.894 182.386C221.658 187.152 221.658 194.875 216.894 199.641L199.641 216.894C194.875 221.658 187.152 221.658 182.386 216.894L167.227 201.733C159.541 194.048 146.4 199.491 146.4 210.36V231.8C146.4 238.538 140.938 244 134.2 244H109.8C103.062 244 97.6 238.538 97.6 231.8V210.36C97.6 199.491 84.4589 194.048 76.7733 201.733L61.613 216.894C56.8487 221.658 49.124 221.658 44.3597 216.894L27.1063 199.641C22.3419 194.875 22.3419 187.152 27.1063 182.386L42.2665 167.227C49.952 159.541 44.5089 146.4 33.6398 146.4H12.2C5.46214 146.4 0 140.938 0 134.2V109.8C0 103.062 5.46212 97.6 12.2 97.6H33.6398C44.5088 97.6 49.952 84.4589 42.2665 76.7733L27.1063 61.613C22.3419 56.8486 22.3419 49.124 27.1063 44.3597L44.3597 27.1062C49.124 22.3419 56.8487 22.3419 61.613 27.1062L76.7733 42.2664C84.4589 49.952 97.6 44.5088 97.6 33.6398V12.2C97.6 5.46212 103.062 0 109.8 0H134.2ZM122 183C155.689 183 183 155.689 183 122C183 88.3107 155.689 61 122 61C88.3107 61 61 88.3107 61 122C61 155.689 88.3107 183 122 183Z" fill="url(#paint0_linear_14524_714)"/>
</g>
</g>
<defs>
<linearGradient id="paint0_linear_14524_714" x1="122" y1="0" x2="122" y2="244" gradientUnits="userSpaceOnUse">
<stop stop-color="#E3EFF8"/>
<stop offset="1" stop-color="#FBF8FE"/>
</linearGradient>
<clipPath id="clip0_14524_714">
<rect width="244" height="244" fill="white"/>
</clipPath>
</defs>
</svg>
