<svg width="388" height="46" viewBox="0 0 388 46" fill="none" xmlns="http://www.w3.org/2000/svg">
<path d="M386.621 25.1213C387.793 23.9497 387.793 22.0503 386.621 20.8787L367.529 1.7868C366.358 0.615223 364.458 0.615223 363.287 1.7868C362.115 2.95837 362.115 4.85786 363.287 6.02944L380.257 23L363.287 39.9706C362.115 41.1421 362.115 43.0416 363.287 44.2132C364.458 45.3848 366.358 45.3848 367.529 44.2132L386.621 25.1213ZM170 26L384.5 26V20L170 20V26Z" fill="#444444"/>
<line x1="160" y1="23" x2="80" y2="23" stroke="#444444" stroke-width="6"/>
<line x1="70" y1="23" x2="30" y2="23" stroke="#444444" stroke-width="6"/>
<line x1="20" y1="23" y2="23" stroke="#444444" stroke-width="6"/>
</svg>
