<svg width="198" height="43" viewBox="0 0 198 43" fill="none" xmlns="http://www.w3.org/2000/svg">
<path d="M192.55 27.6016C194.421 27.6016 195.935 29.0867 195.935 30.977C195.935 32.8672 194.421 34.3524 192.55 34.3524C190.679 34.3524 189.164 32.8672 189.164 30.977C189.164 29.0867 190.679 27.6016 192.55 27.6016Z" fill="#175BCC"/>
<path d="M22.9368 21.6333C22.9368 28.7298 17.1668 34.3056 9.92733 34.3056H0V8.96094H9.92733C17.1668 8.96094 22.9368 14.5368 22.9368 21.6333ZM9.42559 13.2333H4.83823V30.0332H9.42559C14.228 30.0332 17.9911 26.3402 17.9911 21.6333C17.9911 16.8902 14.228 13.2333 9.42559 13.2333Z" fill="#175BCC"/>
<path d="M43.7093 24.9643C43.7093 30.3953 39.1577 34.8125 33.5311 34.8125C27.9402 34.8125 23.3529 30.3953 23.3529 24.9643C23.3529 19.5333 27.9402 15.1161 33.5311 15.1161C39.1577 15.1161 43.7093 19.4971 43.7093 24.9643ZM39.0502 24.9643C39.0502 21.8143 36.6132 19.3161 33.5311 19.3161C30.4848 19.3161 28.0119 21.8143 28.0119 24.9643C28.0119 28.1143 30.4848 30.6125 33.5311 30.6125C36.6132 30.6125 39.0502 28.1143 39.0502 24.9643Z" fill="#175BCC"/>
<path d="M48.5142 24.9281C48.5142 28.0781 50.987 30.6125 54.0333 30.6125C56.0045 30.6125 57.6172 29.6712 58.6924 28.1867L62.0254 30.6488C60.1618 33.1108 57.6531 34.7763 54.0333 34.7763C48.2991 34.7763 43.8551 30.3591 43.8551 24.9281C43.8551 19.4971 48.2991 15.1161 54.0333 15.1161C57.6531 15.1161 60.1618 16.7816 62.0254 19.2436L58.6924 21.7057C57.6172 20.2212 56.0045 19.2798 54.0333 19.2798C50.987 19.2798 48.5142 21.7781 48.5142 24.9281Z" fill="#175BCC"/>
<path d="M67.3231 23.2247V34.304H62.6641V15.5851H67.3231V17.1058C68.5775 15.8385 70.3694 15.0782 72.3047 15.0782C75.0284 15.0782 77.2146 16.3816 78.3973 18.373C79.6516 16.3092 81.8378 15.0782 84.3465 15.0782C88.5755 15.0782 91.4067 18.2282 91.4067 22.2471V34.304H86.7477V23.2247C86.7477 20.9075 85.2425 19.3144 83.0563 19.3144C80.906 19.3144 79.3649 20.8351 79.3649 23.2247V34.304H74.7059V23.2247C74.7059 20.9075 73.2007 19.3144 71.0145 19.3144C68.8283 19.3144 67.3231 20.8351 67.3231 23.2247Z" fill="#0C0C0D"/>
<path d="M92.2159 24.9264C92.2159 19.7127 96.3374 15.1506 101.821 15.1506C107.376 15.1506 111.318 19.3144 111.318 25.1437V26.5195H97.0183C97.6276 28.9454 99.6345 30.7195 102.215 30.7195C104.186 30.7195 105.727 30.0316 107.089 28.2574L110.35 30.7195C108.487 33.2902 105.691 34.7746 102.251 34.7746C96.5882 34.7746 92.2159 30.6471 92.2159 24.9264ZM101.713 19.2058C99.527 19.2058 97.7351 20.6178 97.09 22.8988H106.587C105.906 20.5816 103.971 19.2058 101.713 19.2058Z" fill="#0C0C0D"/>
<path d="M132.029 34.304H127.37V32.566C125.721 33.9781 123.643 34.8108 121.385 34.8108C115.866 34.8108 111.493 30.3574 111.493 24.9626C111.493 19.5316 115.866 15.1144 121.385 15.1144C123.643 15.1144 125.685 15.9472 127.334 17.323V8.95926H132.029V34.304ZM127.406 24.9626C127.406 21.7764 124.897 19.2782 121.779 19.2782C118.697 19.2782 116.152 21.7764 116.152 24.9626C116.152 28.1126 118.697 30.6833 121.779 30.6833C124.897 30.6833 127.406 28.1126 127.406 24.9626Z" fill="#0C0C0D"/>
<path d="M135.811 13.5937C134.342 13.5937 133.159 12.4351 133.159 10.9506C133.159 9.46616 134.342 8.34375 135.811 8.34375C137.28 8.34375 138.391 9.46616 138.391 10.9506C138.391 12.4351 137.28 13.5937 135.811 13.5937ZM138.14 15.5851V34.304H133.446V15.5851H138.14Z" fill="#0C0C0D"/>
<path d="M144.258 34.304H139.563V8.95926H144.258V34.304Z" fill="#0C0C0D"/>
<path d="M148.047 13.5937C146.577 13.5937 145.394 12.4351 145.394 10.9506C145.394 9.46616 146.577 8.34375 148.047 8.34375C149.516 8.34375 150.627 9.46616 150.627 10.9506C150.627 12.4351 149.516 13.5937 148.047 13.5937ZM150.376 15.5851V34.304H145.681V15.5851H150.376Z" fill="#0C0C0D"/>
<path d="M168.894 22.3919V34.304H164.199V23.3333C164.199 20.9075 162.658 19.3144 160.364 19.3144C158.107 19.3144 156.494 20.8351 156.494 23.3333V34.304H151.799V15.5851H156.494V17.1782C157.784 15.8385 159.576 15.0782 161.583 15.0782C165.919 15.0782 168.894 18.3006 168.894 22.3919Z" fill="#0C0C0D"/>
<path d="M170.341 8.95926H175.036V23.6592L181.487 15.5851H186.863L179.373 24.6006L187.401 34.304H181.666L175.036 25.9402V34.304H170.341V8.95926Z" fill="#0C0C0D"/>
</svg>
