<svg width="453" height="453" viewBox="0 0 453 453" fill="none" xmlns="http://www.w3.org/2000/svg">
<path d="M327.585 110.983C331.262 113.3 334.177 116.648 335.965 120.609C338.365 126.229 340.054 132.126 340.994 138.163C339.606 138.2 338.225 138.374 336.871 138.684C336.713 138.684 335.807 139.16 335.648 139.658C334.923 142.169 334.37 144.727 333.995 147.314L288.695 147.586C288.174 147.586 288.242 148.197 288.695 148.22C288.695 148.22 330.054 148.854 333.995 148.877C332.998 157.121 333.836 166.181 339.68 172.025C345.184 177.461 363.893 178.231 370.846 173.044C376.622 168.718 378.049 156.215 377.641 148.877C379 148.877 409.623 148.333 412.658 148.22C412.742 148.22 412.823 148.186 412.882 148.127C412.942 148.067 412.975 147.987 412.975 147.903C412.975 147.819 412.942 147.738 412.882 147.678C412.823 147.619 412.742 147.586 412.658 147.586C407.494 147.586 377.573 147.359 377.573 147.359C376.962 140.564 375.308 139.885 375.308 139.567C375.29 139.358 375.205 139.159 375.067 139.001C374.928 138.842 374.743 138.731 374.538 138.684C372.568 138.299 370.566 138.094 368.559 138.073C371.73 132.976 374.448 119.115 379.431 109.828C386.814 95.9889 414.606 109.171 414.153 96.9402C413.609 83.3502 398.525 75.7171 382.33 82.9198C366.95 89.7148 362.941 121.425 362.67 137.982C358.026 137.982 360.269 138.118 353.61 137.982C359.431 130.236 366.837 104.415 365.546 86.3626C364.067 74.3825 359.025 63.1225 351.073 54.0411C344.097 46.2268 335.92 42.9199 329.759 49.194C320.699 58.254 329.034 68.3785 336.781 78.639C345.297 89.964 348.491 95.6038 349.646 111.731C350.187 120.48 350.02 129.259 349.147 137.982H346.633C348.581 131.617 346.067 117.597 344.232 111.006C341.605 101.697 337.12 92.3196 330.008 85.8643C321.606 78.6097 311.389 73.7787 300.45 71.8893C293.768 70.7568 288.06 71.1871 284.957 73.0444C283.816 73.6379 282.935 74.6326 282.484 75.837C282.032 77.0413 282.042 78.3701 282.511 79.5676C286.271 91.8666 312.862 101.923 327.585 110.983ZM382.783 84.3694C397.936 77.5744 411.888 84.7092 412.364 97.0308C412.726 106.476 385.478 94.7658 378.049 109.239C372.885 119.25 370.597 133.248 367.471 138.095H365.863C368.128 128.107 373.677 105.887 380.201 98.0274C388.536 87.8575 403.055 93.7918 403.689 93.6333C403.938 93.6333 404.187 93.2256 403.44 92.9538C394.38 89.6695 385.161 89.7375 379 97.0308C371.594 105.774 366.928 126.838 364.98 138.163H363.032C363.644 122.308 368.083 90.8247 382.783 84.3694ZM350.801 111.708C349.895 95.7171 346.95 89.8507 338.004 77.733C330.665 67.8802 322.806 58.4805 330.914 50.2585C336.441 44.6413 343.644 47.9935 349.895 55.0603C357.55 63.9214 362.377 74.8705 363.757 86.4985C365.229 104.845 357.755 131.187 352.432 138.005H351.231C353.654 127.633 355.222 117.081 355.92 106.453C356.441 97.3932 356.282 91.0965 353.655 83.2143C351.496 77.2129 348.5 71.547 344.753 66.3853C342.966 63.8393 340.997 61.4247 338.864 59.16C338.81 59.0939 338.732 59.052 338.647 59.0435C338.562 59.035 338.478 59.0606 338.411 59.1147C338.345 59.1687 338.303 59.2468 338.295 59.3318C338.286 59.4167 338.312 59.5016 338.366 59.5677C338.933 60.1605 339.463 60.7884 339.952 61.4476C347.018 70.5076 353.995 83.7352 354.538 95.4226C355.082 107.11 352.749 126.612 350.597 138.163H349.963C350.963 129.382 351.244 120.534 350.801 111.708ZM373.881 140.609C377.619 144.03 376.441 166.747 369.668 171.821C362.896 176.895 345.252 175.694 340.45 171.051C332.885 163.78 333.655 150.168 336.237 140.066C336.398 140.277 336.619 140.435 336.871 140.519C338.612 140.921 340.386 141.163 342.171 141.244C339.954 149.463 340.342 158.169 343.281 166.159C343.389 166.387 343.584 166.563 343.822 166.648C344.059 166.733 344.321 166.72 344.55 166.612C344.778 166.503 344.954 166.309 345.039 166.071C345.124 165.833 345.111 165.571 345.003 165.343C342.149 159.635 341.379 146.951 343.032 141.402C350.099 141.719 369.012 141.855 373.881 140.609ZM329.034 87.0195C344.391 100.609 348.332 130.711 345.954 138.05H344.55C344.228 131.756 343.133 125.526 341.288 119.5C336.396 103.645 328.196 93.9051 315.626 86.5665C309.059 82.8103 302.031 79.9246 294.72 77.9821C294.635 77.9611 294.546 77.9743 294.472 78.0189C294.398 78.0635 294.344 78.1358 294.323 78.2199C294.302 78.3041 294.315 78.3931 294.36 78.4674C294.405 78.5417 294.477 78.5953 294.561 78.6163C303.096 81.3226 311.197 85.2435 318.615 90.2584C326.841 95.7342 333.263 103.52 337.075 112.637C340.692 120.695 342.987 129.284 343.87 138.073H341.741C340.903 131.856 339.29 125.768 336.939 119.953C335.102 115.77 332.088 112.213 328.264 109.715C313.293 100.496 287.494 90.3943 284.051 79.0693C280.858 68.673 311.639 71.4363 329.034 87.0195ZM133.18 203.644C103.01 193.157 75.9659 188.469 59.137 184.233C58.9285 184.175 58.7104 184.159 58.4957 184.187C58.281 184.214 58.0741 184.285 57.8874 184.395C57.7008 184.504 57.5382 184.651 57.4094 184.825C57.2805 184.999 57.1882 185.197 57.1378 185.407C57.0875 185.618 57.0802 185.837 57.1163 186.05C57.1525 186.263 57.2314 186.467 57.3482 186.65C57.4651 186.832 57.6176 186.989 57.7965 187.111C57.9754 187.232 58.1771 187.317 58.3895 187.359C69.2162 189.964 85.5695 192.954 103.259 197.053C132.478 203.848 133.112 205.864 133.587 204.46C133.638 204.297 133.624 204.122 133.548 203.97C133.472 203.818 133.34 203.701 133.18 203.644ZM372.251 221.968C372.251 221.915 372.24 221.862 372.219 221.812C372.199 221.763 372.169 221.718 372.131 221.68C372.093 221.642 372.048 221.612 371.999 221.592C371.949 221.571 371.896 221.56 371.843 221.56C351.979 221.56 332.658 226.09 321.718 227.11C321.585 227.121 321.456 227.159 321.337 227.221C321.219 227.284 321.115 227.369 321.03 227.473C320.946 227.576 320.883 227.696 320.845 227.824C320.808 227.952 320.797 228.087 320.812 228.22C320.824 228.354 320.862 228.484 320.924 228.603C320.986 228.723 321.071 228.829 321.174 228.915C321.277 229.001 321.396 229.066 321.525 229.106C321.653 229.146 321.788 229.161 321.922 229.148C329.94 228.355 343.825 225.32 356.826 223.644C371.254 221.968 372.273 222.987 372.251 221.968ZM303.825 269.103C303.844 269.066 303.857 269.025 303.86 268.983C303.864 268.941 303.86 268.899 303.847 268.859C303.834 268.819 303.814 268.782 303.787 268.75C303.76 268.718 303.726 268.692 303.689 268.673L303.123 268.378L302.987 269.058C303.372 269.239 303.666 269.533 303.825 269.103Z" fill="#444444"/>
<path d="M441.401 274.767C435.58 273.567 421.197 274.042 415.263 274.563C420.155 257.848 425.206 236.058 427.245 224.054C427.983 220.732 428.303 217.331 428.196 213.929C428.122 213.624 427.985 213.337 427.794 213.088C427.603 212.838 427.362 212.631 427.086 212.48C418.026 206.795 323.1 219.275 316.486 222.559C314.516 223.533 312.749 228.448 311.956 230.668C306.09 221.019 306.702 218.731 300.156 203.488C296.077 193.559 290.903 184.116 284.731 175.334C284.89 174.133 291.164 127.27 284.437 114.745C279.907 106.365 255.377 103.42 245.932 102.627C245.932 102.129 244.754 93.5673 244.256 89.6941C252.228 83.035 255.581 70.7814 246.928 68.7202C240.79 67.2706 216.555 62.65 198.503 67.3159C187.178 70.2604 178.118 76.8742 177.348 89.9659C177.043 94.9371 177.348 99.9269 178.254 104.824C166.543 106.115 146.385 108.041 136.102 111.914C122.874 116.897 128.446 174.768 129.85 179.456C129.08 181.359 128.356 183.284 127.699 185.073C94.743 176.67 20.9719 160.996 17.6877 161.291C16.8322 161.28 15.9875 161.482 15.2287 161.877C14.47 162.272 13.8207 162.849 13.3389 163.556C12.4555 163.76 12.1384 165.005 11.9799 165.821C9.71487 177.871 13.8145 249.83 14.5393 262.038C15.7398 266.432 50.6434 275.968 55.1734 277.213C55.3999 283.17 56.6004 312.751 56.8495 318.821C54.879 318.463 52.9284 318.001 51.0058 317.44C46.9741 315.786 31.5268 330.826 32.8858 329.58C26.9742 334.835 91.3002 352.117 96.4417 350.667C101.583 349.218 111.753 339.501 110.032 334.088C109.556 333.124 108.753 332.362 107.767 331.936C102.897 329.376 90.0091 326.228 84.6411 324.937C85.162 313.974 85.162 295.99 85.1394 285.073C91.504 286.659 127.631 295.401 134.154 295.288C134.622 295.295 135.083 295.178 135.49 294.948C137.574 294.654 140.02 294.133 140.224 292.004C140.224 291.37 140.745 285.843 141.402 277.644C157.37 283.737 176.736 283.284 180.179 281.879C181.107 281.432 181.891 280.733 182.444 279.863C182.602 280.067 182.67 280.022 183.871 280.203C188.401 280.928 195.649 281.608 199.726 279.478C205.501 280.407 222.24 281.743 223.486 276.149C223.644 275.401 223.871 273.884 224.097 272.049C240.858 272.955 300.382 272.548 300.609 272.548L299.227 278.776C299.192 278.725 299.145 278.683 299.089 278.656C299.034 278.628 298.972 278.615 298.91 278.618C298.91 278.437 298.91 278.482 298.91 278.618C289.635 277.887 280.328 277.645 271.028 277.893C267.721 278.052 259.001 278.459 258.842 281.676C257.684 284.409 257.516 287.461 258.367 290.305C258.865 292.094 263.078 294.994 264.641 296.058C255.784 295.175 250.62 295.515 247.948 296.466C247.312 296.577 246.719 296.862 246.236 297.289C245.753 297.717 245.397 298.27 245.209 298.887C245.022 299.504 245.009 300.162 245.172 300.786C245.336 301.41 245.669 301.977 246.136 302.423C249.171 306.591 255.49 307.995 256.17 313.453C257.461 323.805 231.141 335.515 221.538 339.614C226.362 333.272 239.295 313.318 233.021 308.493C226.045 303.125 166.226 300.769 160.722 302.174C156.849 303.17 128.378 324.212 128.899 331.619C129.262 336.443 157.28 341.177 162.489 342.083C168.355 343.08 210.213 349.603 215.218 346.409C216.28 345.981 217.244 345.343 218.054 344.533C218.863 343.724 219.501 342.76 219.93 341.698C228.603 338.717 236.951 334.861 244.844 330.192C257.302 322.468 264.278 312.91 251.957 304.869C250.484 303.918 246.453 301.019 247.042 299.388C248.31 295.786 265.818 297.123 266.068 297.123C274.199 302.423 289.759 310.6 298.933 312.978C308.627 315.537 353.927 310.577 364.867 309.195C366.113 313.725 367.313 317.938 368.106 320.52C366.407 320.656 361.56 321.086 360.201 322.151C359.453 322.74 359.476 323.737 360.677 324.416C360.677 332.004 359.748 354.699 362.013 364.937C362.874 368.765 363.87 370.35 367.834 371.732C375.331 374.155 389.737 373.295 397.279 371.279C401.968 370.01 402.579 369.014 403.327 366.522C405.909 358.051 405.773 333.046 405.592 324.167C405.737 324.062 405.855 323.924 405.936 323.765C406.017 323.605 406.06 323.429 406.06 323.25C406.06 323.071 406.017 322.894 405.936 322.735C405.855 322.575 405.737 322.437 405.592 322.332C403.916 321.555 402.112 321.095 400.269 320.973C400.586 318.436 402.285 304.258 402.534 301.766C403.718 301.056 404.774 300.152 405.659 299.093C407.044 297.411 407.945 295.383 408.264 293.227C410.529 290.26 413.791 279.184 414.855 275.56C424.957 275.99 439.77 275.401 441.152 275.56C441.257 275.593 441.371 275.583 441.469 275.532C441.566 275.481 441.64 275.393 441.673 275.288C441.706 275.183 441.696 275.069 441.645 274.971C441.594 274.874 441.506 274.8 441.401 274.767ZM135.241 323.646C136.759 321.97 138.548 320.226 140.451 318.459C148.537 310.985 158.82 303.465 161.062 302.899C166.498 301.494 226.204 305.164 232.274 309.694C233.293 310.464 233.497 311.959 233.293 313.748C232.478 320.86 225.048 332.593 220.722 338.323C215.83 334.11 141.719 324.529 135.241 323.646ZM246.226 104.258C254.878 105.073 279.137 107.859 283.304 115.425C289.193 126.07 285.569 162.378 284.12 174.314C282.851 172.616 281.538 171.008 280.201 169.535C272.523 161.11 259.34 156.874 248.174 154.722C241.001 153.473 233.765 152.619 226.498 152.163C226.272 152.163 226.634 152.503 224.845 148.833C222.172 143.329 222.013 143.42 222.285 143.261C225.255 143.103 228.196 142.602 231.051 141.766C238.706 139.501 243.259 134.971 245.411 123.964C246.579 117.439 246.823 110.783 246.136 104.19L246.226 104.258ZM226.725 152.865C228.151 153.069 228.536 153.046 228.65 153.114C228.65 153.68 233.61 180.294 216.623 181.517C202.58 182.672 193.338 162.967 188.355 149.807C190.167 149.513 191.617 149.309 192.591 149.173C193.067 159.501 207.925 178.233 216.17 176.919C225.433 175.402 229.986 161.313 226.725 152.865ZM192.908 111.189C193.111 110.178 193.563 109.235 194.224 108.444C194.885 107.652 195.733 107.039 196.691 106.659C201.221 105.549 201.221 111.189 204.822 110.872C209.352 110.577 204.301 100.068 208.197 93.6579C212.432 86.5911 229.601 100.883 243.486 90.283C245.162 102.22 246.996 111.506 244.437 123.692C242.172 134.383 237.959 138.324 230.688 140.453C227.701 141.141 224.675 141.655 221.628 141.993C221.385 142.13 221.181 142.327 221.034 142.565C220.888 142.802 220.804 143.073 220.79 143.352C220.79 144.145 223.055 148.199 225.162 152.933C228.31 160.362 224.21 173.862 215.92 175.153C210.031 176.081 198.503 162.876 195.218 153.544C193.769 149.422 194.199 149.264 196.759 133.159C200.36 133.409 201.107 126.364 201.289 122.718C201.326 121.945 201.057 121.188 200.541 120.611C198.91 118.822 197.574 120.906 194.403 116.942C193.711 116.173 193.214 115.249 192.954 114.248C192.694 113.247 192.678 112.198 192.908 111.189ZM178.571 106.455C181.606 120.317 189.579 129.943 195.06 132.616C194.063 138.981 192.931 146.07 192.636 148.222C179.567 148.877 166.677 151.551 154.426 156.149C148.985 158.232 143.915 161.177 139.409 164.869C136.917 151.959 143.327 126.727 142.534 119.569C142.172 116.534 141.311 113.318 138.344 112.661C148.491 109.468 167.291 107.656 178.571 106.455ZM136.985 113.25C137.527 113.269 138.058 113.396 138.549 113.626C139.039 113.856 139.478 114.182 139.839 114.586C140.86 116.127 141.375 117.949 141.311 119.796C141.81 126.591 134.766 151.642 138.729 165.526C134.911 169.106 132.02 173.56 130.303 178.505C128.491 167.474 125.479 117.259 136.985 113.25ZM55.6038 216.443C55.785 215.379 57.7329 214.903 58.7974 214.722C66.657 213.431 82.9876 217.916 82.6252 223.374C82.0816 231.46 84.5731 329.444 82.444 333.046C79.9072 337.372 66.0454 334.971 60.5188 331.12C58.0047 329.376 58.05 327.882 58.1179 328.176C56.1927 251.053 55.2867 218.21 55.6038 216.443ZM108.106 334.835C109.262 338.686 100.179 347.542 95.9661 348.72C91.7532 349.897 29.6469 333.816 33.7012 330.146C31.8213 331.845 43.8031 320.815 49.0806 319.048C49.5012 318.838 49.9819 318.782 50.4396 318.889C51.0511 319.161 53.452 319.773 56.9175 320.588C57.1213 325.367 57.2572 328.199 57.2572 328.199C58.5936 334.858 79.9072 339.886 83.6218 333.748C84.1905 331.573 84.4947 329.337 84.5278 327.089C87.9933 327.949 105.774 332.276 108.106 334.835ZM134.154 293.363C128.197 293.589 91.119 284.892 85.1394 283.488C85.0261 256.942 84.4825 227.18 84.7543 223.51C85.2979 215.175 64.0975 210.645 56.623 213.091C55.8823 213.254 55.2016 213.62 54.6575 214.148C54.1133 214.676 53.7272 215.346 53.5426 216.081C53.0443 219.094 54.9922 272.706 55.1055 275.922C51.4135 274.926 16.827 265.707 15.4 262.015C15.015 253.68 11.323 173.091 13.9504 165.458C26.272 168.539 131.504 189.762 138.91 194.903C140.768 200 136.532 286.16 134.154 293.363ZM139.477 292.027C139.477 293.544 137.461 294.065 135.966 294.292C138.412 288.425 143.282 199.162 140.79 193.907C138.299 188.652 24.6639 166.568 14.041 163.601C14.5135 163.09 15.0886 162.684 15.7288 162.411C16.369 162.138 17.0597 162.003 17.7556 162.016C20.904 161.789 137.098 187.746 143.848 191.461C144.981 194.722 143.848 217.44 143.69 221.177C143.282 230.192 139.567 290.803 139.477 292.027ZM200.632 276.693C197.982 280.226 188.582 279.796 184.165 279.388H183.078C185.093 275.337 186.235 270.907 186.43 266.387C188.695 265.753 196.985 263.827 198.253 265.866C198.639 266.455 197.415 267.157 196.781 267.497C195.106 268.274 193.352 268.866 191.549 269.263C191.282 269.314 191.046 269.47 190.893 269.695C190.74 269.92 190.683 270.196 190.734 270.464C190.785 270.731 190.94 270.967 191.165 271.12C191.39 271.273 191.667 271.33 191.934 271.279C194.199 270.962 200.383 270.101 202.58 270.849C201.674 272.105 200.375 273.022 198.888 273.454C196.77 273.439 194.655 273.613 192.568 273.975C192.268 274.031 191.998 274.197 191.812 274.439C191.625 274.682 191.535 274.985 191.557 275.29C191.58 275.595 191.713 275.881 191.933 276.094C192.153 276.307 192.444 276.431 192.75 276.443C195.05 276.51 197.346 276.197 199.545 275.515C200.117 275.538 200.68 275.677 201.198 275.922C201.053 276.227 200.835 276.492 200.564 276.693H200.632ZM222.059 275.9C221.963 276.253 221.783 276.577 221.534 276.845C221.286 277.113 220.976 277.317 220.632 277.44C216.441 279.705 205.864 279.297 201.153 278.822C202.897 277.485 203.916 275.311 202.149 274.11C205.637 271.845 205.275 269.422 202.987 268.72C201.506 268.361 199.974 268.253 198.457 268.403C199.884 267.338 200.405 266.138 199.545 264.847C198.299 263.08 195.015 263.306 192.976 263.646C192.006 254.679 191.507 245.667 191.481 236.647C197.529 241.041 217.574 241.177 224.573 237.01C224.913 244.62 222.625 272.593 221.968 275.9H222.059ZM202.625 270.758C202.625 270.758 202.557 270.803 202.557 270.758H202.625ZM251.232 271.257C255.422 259.003 256.011 233.046 255.762 220.068C259.273 225.707 278.412 252.751 278.548 252.978C279.013 253.689 279.56 254.343 280.178 254.926C284.742 259.097 289.865 262.611 295.399 265.368C301.311 268.493 301.787 268.335 301.741 268.584L300.949 271.981C300.564 271.959 254.697 271.257 251.164 271.257H251.232ZM260.994 281.426C265.864 278.029 298.978 279.569 299.34 279.343V279.592C296.169 294.767 294.946 300.249 294.561 302.242C294.765 301.358 296.011 295.447 297.438 288.901C298.434 284.099 299.703 278.391 300.994 272.344C301.583 269.58 301.968 267.814 301.99 267.678C295.784 264.394 286.317 258.731 281.356 253.725C280.111 252.457 256.034 219.094 255.807 218.708C255.581 218.323 255.581 208.38 255.331 207.927C255.284 207.876 255.222 207.84 255.153 207.825C255.085 207.811 255.014 207.817 254.949 207.845C254.885 207.872 254.831 207.918 254.794 207.978C254.757 208.037 254.739 208.106 254.743 208.176C254.516 208.176 254.743 256.602 250.552 271.189L224.46 271.438C224.618 270.169 224.777 268.697 224.958 267.112C235.467 268.448 240.247 256.919 237.461 247.519C235.807 242.355 231.549 241.562 226.679 244.054C226.906 241.038 226.906 238.01 226.679 234.994C226.889 234.473 226.926 233.899 226.783 233.356C226.64 232.813 226.326 232.331 225.886 231.981C222.512 228.81 213.067 228.471 208.469 228.471C203.871 228.471 194.403 228.833 191.051 231.981C190.757 232.208 190.524 232.504 190.371 232.842C188.65 235.945 191.957 263.148 192.364 263.737C190.392 264.129 188.447 264.651 186.543 265.3V261.676C186.408 253.771 161.13 249.377 160.269 244.869C159.975 243.329 159.499 239.886 158.956 235.809C155.898 213.431 156.351 214.292 155.853 214.292C155.769 214.292 155.688 214.325 155.628 214.385C155.569 214.444 155.536 214.525 155.536 214.609C155.536 215.22 157.982 239.864 158.865 245.096C159.748 250.328 184.845 255.402 184.958 261.676C184.958 266.568 183.871 278.708 179.635 280.452C177.076 281.54 157.28 282.536 141.493 276.987C141.832 272.593 148.129 193.929 145.094 190.441C143.939 189.105 130.371 185.707 128.65 185.277C135.445 169.875 140.473 157.191 187.721 149.785C189.033 154.182 190.638 158.488 192.523 162.672C197.325 172.933 205.456 184.009 216.713 183.057C229.646 181.948 231.73 167.927 229.669 155.13C229.533 154.224 229.397 153.635 229.284 153.114C235.499 153.736 241.676 154.689 247.789 155.968C258.457 158.233 271.572 162.536 278.887 170.645C286.792 179.343 293.701 192.774 298.548 203.51C305.524 218.958 305.479 222.944 311.481 231.846C307.26 245.163 303.722 258.688 300.881 272.366C299.975 276.602 298.616 283.057 297.325 288.923C295.445 297.983 294.312 303.714 294.425 302.513C294.222 303.737 294.425 303.691 294.425 303.986C287.041 300.692 279.916 296.846 273.112 292.48C270.733 290.894 258.593 283.125 260.994 281.381V281.426ZM226.498 248.674C226.498 247.497 226.634 246.409 226.679 245.277C230.779 243.624 234.426 243.873 235.535 248.154C237.8 255.922 234.222 266.273 225.094 266.273C225.094 265.186 225.479 262.083 225.524 261.743C235.943 263.148 235.875 244.077 226.498 248.674ZM225.615 260.77C225.932 257.191 226.204 253.408 226.43 249.852C227.515 249.517 228.675 249.517 229.76 249.852C232.455 250.826 232.025 260.181 225.501 260.77H225.615ZM299.703 311.03C290.987 308.179 282.555 304.524 274.516 300.113C272.251 298.912 260.518 292.525 259.726 290.056C259.041 287.852 258.97 285.502 259.522 283.261C262.557 289.173 281.809 299.116 287.993 302.038C290.824 303.374 293.745 304.509 296.736 305.435C307.2 309.173 352.092 303.17 363.123 301.811C363.259 302.287 364.21 305.934 364.572 307.247C354.969 308.357 308.718 313.408 299.59 311.03H299.703ZM400.903 367.995C397.596 370.803 377.755 373.159 368.4 370.26C365.003 369.195 364.323 368.108 363.508 364.665C362.765 360.929 362.296 357.144 362.104 353.34C366.747 356.194 375.263 356.919 380.722 357.077C388.944 357.259 397.03 357.077 403.644 353.34C403.508 355.741 402.738 366.432 400.903 367.995ZM403.712 352.457C399.244 354.368 394.437 355.362 389.578 355.379C383.1 355.696 367.925 355.65 362.058 352.525C361.809 348.267 361.651 343.714 361.583 339.478C363.848 342.196 375.92 343.419 380.745 343.578C389.352 343.759 397.347 343.578 404.233 339.501C404.233 339.274 404.165 344.642 403.734 352.457H403.712ZM404.233 338.708C392.908 344.416 364.799 341.834 361.56 338.708V324.778C368.763 327.338 397.234 327.157 404.368 324.778C404.323 327.383 404.346 332.683 404.255 338.708H404.233ZM399.703 323.465C399.784 323.487 399.87 323.479 399.946 323.441C400.021 323.404 400.08 323.339 400.11 323.261C400.11 323.261 400.11 322.853 400.246 322.128C401.706 322.329 403.146 322.655 404.55 323.102C399.589 325.367 369.737 325.571 362.285 323.374C362.234 323.358 362.19 323.327 362.158 323.284C362.127 323.241 362.11 323.189 362.11 323.136C362.11 323.083 362.127 323.032 362.158 322.989C362.19 322.946 362.234 322.914 362.285 322.898C364.361 322.334 366.483 321.955 368.627 321.766C368.777 322.396 369.005 323.005 369.306 323.578C369.487 323.759 369.782 323.782 369.759 323.329C369.737 322.876 362.307 293.544 361.175 287.089C362.333 287.475 363.568 287.572 364.773 287.371C365.977 287.169 367.114 286.676 368.083 285.934C370.575 292.91 378.525 324.303 379 324.303C379.087 324.297 379.167 324.259 379.226 324.196C379.285 324.133 379.318 324.049 379.318 323.963L378.661 320.905H381.786C381.786 321.336 382.036 323.533 382.058 323.691C382.081 323.85 382.738 324.235 382.692 323.397C382.692 321.358 380.79 287.587 380.745 286.976C381.07 286.818 381.412 286.697 381.764 286.613C382.013 287.836 389.986 320.135 390.597 322.649C390.597 322.876 390.597 323.261 391.028 323.17C391.458 323.08 391.277 322.672 391.028 321.2L394.493 321.449V321.834C394.493 322.196 395.059 322.106 395.127 321.834C395.127 322.083 399.34 278.618 399.657 275.152C400.254 275.605 400.94 275.925 401.671 276.093C402.401 276.261 403.158 276.272 403.893 276.126C403.848 276.466 399.204 323.306 399.68 323.465H399.703ZM379.318 278.437C379.049 276.258 378.097 274.22 376.6 272.616C379.703 273.544 380.359 274.224 381.13 276.353C381.742 278.049 381.906 279.875 381.605 281.653C381.299 282.772 381.299 283.954 381.605 285.073C381.235 285.158 380.871 285.272 380.518 285.413C379.114 281.404 375.988 281.449 375.988 277.417C375.984 275.96 375.77 274.511 375.354 273.114C376.451 275.102 377.653 277.03 378.955 278.89C379.182 279.184 379.612 278.754 379.34 278.437H379.318ZM380.45 307.021C380.563 308.131 381.447 317.757 381.673 320.203H378.434C377.755 317.145 376.735 312.615 375.58 307.768L380.45 307.021ZM380.314 305.277L375.15 305.956C374.697 304.076 374.221 302.174 373.746 300.294C375.829 299.999 377.868 299.682 379.838 299.365C379.929 300.339 380.246 304.28 380.337 305.277H380.314ZM387.358 304.235C386.996 302.514 386.113 298.618 386.045 298.391C388.015 298.051 394.72 296.896 396.101 296.625C396.101 297.598 395.716 301.721 395.626 302.763C393.428 303.238 390.62 303.737 387.313 304.235H387.358ZM395.535 304.235C395.127 310.101 394.493 319.909 394.47 320.452C393.293 320.452 392.047 320.407 390.733 320.316C390.19 317.576 387.857 306.59 387.698 305.843C390.756 305.231 393.383 304.688 395.558 304.167L395.535 304.235ZM399.861 273.272C400.137 270.402 400.584 267.551 401.197 264.733C401.802 264.552 402.439 264.509 403.063 264.607C403.686 264.705 404.279 264.941 404.799 265.3C404.663 268.146 404.361 270.982 403.893 273.793C403.689 274.586 403.644 274.79 403.123 274.858C402.103 274.926 400.042 274.065 399.884 273.204L399.861 273.272ZM402.828 300.271C403.032 298.595 403.236 296.896 403.417 295.198C404.759 294.916 406.077 294.53 407.358 294.042C406.644 296.571 405.044 298.757 402.851 300.203L402.828 300.271ZM406.611 292.162C405.655 292.543 404.67 292.846 403.666 293.068C404.074 289.263 406.475 267.112 406.475 265.549C406.475 263.284 402.443 262.446 400.359 263.284C399.657 263.601 399.453 264.937 399.25 266.115C398.117 272.434 396.781 288.199 396.26 294.609L385.637 296.557C382.987 285.005 383.213 285.639 382.919 285.345C382.716 285.152 382.451 285.039 382.171 285.028C381.962 284.019 382.017 282.974 382.33 281.993C382.798 280.034 382.736 277.985 382.149 276.058C381.847 274.657 381.041 273.416 379.884 272.57C378.041 271.593 376.052 270.92 373.995 270.577C373.887 270.548 373.774 270.545 373.664 270.568C373.555 270.592 373.453 270.641 373.367 270.712C373.28 270.783 373.212 270.874 373.168 270.976C373.123 271.079 373.104 271.19 373.111 271.302C373.16 271.494 373.22 271.683 373.293 271.868C375.059 276.081 373.836 278.006 375.059 280.52C376.282 283.035 378.344 283.42 379.091 286.319C379.091 286.545 379.725 297.01 379.748 297.644L373.338 298.663C372.885 296.942 369.782 284.688 368.559 283.488C366.294 281.223 359.816 283.759 359.499 285.753C359.295 286.885 362.398 299.025 362.692 300.181C351.028 301.879 338.661 303.42 327.721 304.439C322.942 304.869 293.746 307.542 295.377 302.763C297.642 292.298 302.172 273.091 303.078 269.059V268.742C303.078 268.403 303.236 268.063 303.078 269.059C303.078 268.72 303.214 268.516 303.259 268.403L308.921 246.5C309.669 243.805 314.81 225.481 317.415 224.19C323.191 221.336 418.117 209.06 426.135 214.428C427.494 220.249 410.801 289.399 406.633 292.185L406.611 292.162Z" fill="#444444"/>
<path d="M223.123 109.993V108.249C223.123 107.967 223.011 107.696 222.812 107.496C222.612 107.297 222.341 107.184 222.059 107.184C221.774 107.184 221.501 107.296 221.298 107.495C221.095 107.694 220.978 107.965 220.972 108.249V110.287C221.022 110.557 221.174 110.796 221.396 110.957C221.619 111.117 221.894 111.185 222.166 111.147C222.437 111.109 222.683 110.968 222.853 110.753C223.023 110.538 223.104 110.266 223.078 109.993H223.123ZM367.88 249.381C367.223 248.747 366.294 247.999 365.433 248.271C364.006 248.724 362.579 252.348 361.968 253.843C360.25 258.304 358.887 262.894 357.891 267.569C358.82 269.97 374.493 266.822 376.622 265.78C377.302 265.463 377.211 264.647 376.985 263.922C374.743 258.621 371.67 253.712 367.88 249.381ZM358.503 267.275C358.91 265.395 364.074 250.989 365.841 249.676C368.582 251.238 374.086 260.842 375.558 264.466C373.519 265.281 359.68 268.792 358.503 267.275ZM174.086 315.315C173.86 315.474 168.922 318.599 168.695 318.826C168.642 318.848 168.596 318.886 168.564 318.934C168.532 318.983 168.514 319.04 168.514 319.098C168.514 319.156 168.532 319.213 168.564 319.261C168.596 319.309 168.642 319.347 168.695 319.37C169.964 319.732 174.199 320.208 175.49 320.344C206.476 312.575 206.68 312.575 206.294 312.575C206.503 312.546 206.692 312.439 206.823 312.274C206.954 312.109 207.016 311.901 206.997 311.691C206.997 311.306 206.385 308.633 206.204 307.818L174.086 315.315ZM234.109 100.525C234.743 100.525 235.989 100.82 236.238 100.842C237.613 100.985 238.975 101.227 240.315 101.567L242.353 101.93C242.431 101.949 242.513 101.94 242.584 101.905C242.656 101.87 242.713 101.811 242.746 101.738C242.778 101.665 242.784 101.583 242.762 101.506C242.74 101.429 242.691 101.363 242.625 101.318C241.443 100.317 240.01 99.6588 238.48 99.4154C236.965 99.0906 235.388 99.2246 233.95 99.8005C233.903 99.8109 233.857 99.8305 233.817 99.8584C233.778 99.8862 233.743 99.9216 233.717 99.9627C233.691 100.004 233.673 100.049 233.664 100.097C233.656 100.145 233.657 100.195 233.667 100.242C233.677 100.29 233.697 100.335 233.725 100.375C233.753 100.415 233.788 100.449 233.829 100.475C233.87 100.501 233.916 100.519 233.964 100.528C234.012 100.537 234.061 100.536 234.109 100.525ZM216.17 102.518C216.781 102.383 218.095 102.179 218.435 102.133C219.807 101.834 221.201 101.637 222.602 101.545L224.867 101.295C224.958 101.295 225.044 101.26 225.108 101.196C225.171 101.132 225.207 101.046 225.207 100.956C225.207 100.866 225.171 100.779 225.108 100.715C225.044 100.652 224.958 100.616 224.867 100.616C223.407 99.9969 221.806 99.79 220.236 100.018C218.667 100.245 217.19 100.899 215.966 101.907C215.912 101.907 215.859 101.92 215.811 101.944C215.763 101.969 215.722 102.004 215.69 102.048C215.659 102.092 215.638 102.142 215.63 102.195C215.622 102.249 215.627 102.303 215.644 102.354C215.661 102.405 215.69 102.451 215.728 102.489C215.767 102.527 215.813 102.555 215.865 102.571C215.916 102.587 215.971 102.591 216.024 102.581C216.077 102.572 216.127 102.551 216.17 102.518ZM238.82 106.46C238.538 106.46 238.267 106.572 238.067 106.771C237.867 106.971 237.755 107.242 237.755 107.524V109.563C237.794 109.845 237.944 110.1 238.171 110.272C238.398 110.444 238.685 110.519 238.967 110.48C239.249 110.441 239.505 110.291 239.677 110.064C239.849 109.837 239.923 109.551 239.884 109.268V107.524C239.888 107.383 239.862 107.244 239.81 107.113C239.757 106.983 239.679 106.864 239.58 106.764C239.48 106.665 239.361 106.587 239.231 106.534C239.1 106.482 238.961 106.456 238.82 106.46ZM63.0332 303.107C66.1816 304.126 73.5202 306.867 76.895 306.459C77.3027 306.459 77.7557 306.051 78.0502 305.327C80.3152 300.23 78.6844 274.319 77.869 269.313C77.3027 265.712 64.279 261.25 61.1306 263.809C59.0921 265.463 60.1114 284.647 60.3379 287.32C60.9268 293.775 60.3152 302.224 63.0332 303.107ZM62.1499 265.01C64.5961 263.243 75.9437 267.433 76.3061 269.54C76.8724 273.096 78.9788 302.994 76.7138 305.327C73.792 305.757 66.0457 303.379 63.1238 302.473C61.0627 301.793 61.7648 292.778 61.4251 287.207C61.2665 283.447 61.0174 268.52 62.1499 265.01ZM223.101 123.56C223.044 123.532 222.982 123.518 222.92 123.518C222.857 123.518 222.795 123.532 222.738 123.56C222.172 123.764 221.832 124.398 221.742 125.327C221.669 127.727 222.474 130.07 224.007 131.918C224.366 132.409 224.82 132.822 225.343 133.133C225.865 133.444 226.445 133.647 227.047 133.729C227.649 133.812 228.262 133.772 228.849 133.613C229.436 133.453 229.984 133.177 230.462 132.802C231.827 131.678 232.9 130.24 233.588 128.611C233.65 128.484 233.682 128.345 233.682 128.204C233.682 128.062 233.65 127.923 233.588 127.796C232.886 126.709 231.209 128.249 223.101 123.56ZM222.897 124.33C225.358 126.426 228.238 127.97 231.345 128.86C226.498 137.105 221.629 125.984 222.897 124.33ZM228.446 119.008C229.896 119.279 233.905 118.781 234.766 117.309C235.196 116.607 234.766 116.38 233.814 113.481C232.957 110.962 231.951 108.497 230.802 106.097C230.394 105.463 229.873 106.097 230.168 106.482C230.797 109.955 231.799 113.349 233.157 116.607C231.518 117.374 229.84 118.054 228.129 118.645C228.126 118.69 228.132 118.735 228.146 118.777C228.16 118.82 228.183 118.859 228.212 118.892C228.242 118.926 228.278 118.954 228.318 118.973C228.358 118.993 228.402 119.005 228.446 119.008ZM311.979 354.545C320.473 349.154 313.859 344.194 308.242 346.55C306.86 344.035 306.543 343.832 303.712 343.967C289.012 344.715 222.625 360.072 221.991 360.321C218.639 361.702 227.155 381.702 230.53 384.33C231.3 384.919 231.051 385.032 239.363 383.401C239.907 388.339 242.059 396.991 247.087 397.263C249.431 396.834 251.713 396.119 253.882 395.134C258.083 399.313 262.554 403.209 267.268 406.799C272.478 410.287 305.773 371.397 310.756 366.867C312.183 366.391 313.452 366.074 313.293 362.54C317.597 361.748 320.926 359.098 318.638 355.292C317.098 352.982 314.426 353.345 311.979 354.545ZM312.772 348.384C313.701 348.724 314.176 349.086 313.882 350.015C313.272 351.434 312.378 352.714 311.255 353.775C310.654 351.933 309.95 350.125 309.148 348.362C310.321 347.939 311.605 347.947 312.772 348.384ZM288.673 347.637C289.511 351.601 290.077 353.752 291.141 357.399L275.445 360.366C274.542 357.089 273.491 353.854 272.297 350.672C275.264 350.106 286.249 348.044 288.673 347.637ZM265.456 377.875C266.287 380.72 267.515 383.435 269.103 385.938C264.754 388.044 260.654 389.97 257.166 391.555C255.915 387.757 254.155 384.145 251.934 380.819L265.456 377.875ZM259.046 377.875C258.281 373.939 257.313 370.046 256.147 366.21L274.267 362.291C275.255 366.128 276.45 369.908 277.846 373.616C271.617 374.93 265.117 376.402 259.046 377.784V377.875ZM266.589 377.988C266.34 377.625 264.799 378.169 281.47 374.341C281.764 376.024 282.388 377.633 283.304 379.075L270.032 385.576C269.244 382.87 268.085 380.286 266.589 377.897V377.988ZM282.444 374.092C291.051 372.099 298.956 370.196 304.414 368.747L284.414 378.509C284.044 376.9 283.384 375.373 282.466 374.001L282.444 374.092ZM278.616 373.39C277.889 369.525 276.967 365.7 275.853 361.929L291.323 358.124C291.323 358.237 292.364 361.725 292.84 363.22C293.067 363.899 294.992 369.381 295.105 369.471C290.417 370.513 278.978 373.209 278.593 373.299L278.616 373.39ZM271.617 350.898C272.365 355.021 273.067 357.693 273.882 360.774L255.762 364.76C254.698 361.159 253.973 358.803 252.41 354.726C255.943 353.911 268.899 351.329 271.64 350.808L271.617 350.898ZM251.662 354.862C252.546 359.392 253.203 361.77 254.154 365.123C252.636 365.462 240.247 368.565 240.247 368.565C239.794 368.565 239.975 369.268 240.428 369.177C240.428 369.177 253.859 366.685 254.539 366.527C254.539 366.527 255.513 370.423 258.299 378.056L243.69 381.317C241.6 373.416 238.974 365.667 235.83 358.124L251.662 354.862ZM231.164 383.56C227.721 380.978 219.839 361.952 222.217 360.91C222.217 360.91 227.404 359.777 235.196 358.146C237.138 366.084 239.729 373.849 242.942 381.363C231.028 384.035 231.549 383.764 231.187 383.469L231.164 383.56ZM247.019 395.609C243.191 395.609 240.904 387.342 240.224 383.582C240.224 383.152 239.024 383.582 250.87 381.113C251.459 381 250.53 380.842 253.361 386.731C254.173 388.581 255.175 390.342 256.351 391.985C253.372 393.412 250.281 394.594 247.11 395.519L247.019 395.609ZM268.129 405.304C263.524 402.077 259.101 398.599 254.879 394.885C258.775 393.277 263.191 391.215 266.996 389.403C269.976 392.867 273.351 395.968 277.053 398.645C275.513 399.958 270.281 404.805 268.22 405.213L268.129 405.304ZM277.71 397.965C274.718 394.626 271.369 391.625 267.721 389.018L281.945 382.019C283.927 384.054 286.221 385.759 288.74 387.07C285.178 390.756 281.531 394.359 277.801 397.874L277.71 397.965ZM289.511 386.346C287.621 384.417 285.471 382.763 283.123 381.431C292.863 376.516 298.457 373.526 307.54 368.497C303.508 372.053 293.27 382.518 289.601 386.255L289.511 386.346ZM311.119 365.055C310.145 365.757 296.804 369.018 295.649 369.29C294.206 361.88 292.091 354.617 289.329 347.591C293.723 346.844 302.421 345.326 305.66 345.689C306.098 346.204 306.478 346.766 306.793 347.365C305.247 348.415 303.967 349.811 303.055 351.442C302.829 352.008 303.418 352.303 303.712 352.031C304.845 350.832 306.169 349.829 307.631 349.064C308.658 351.187 309.551 353.374 310.303 355.61C308.291 356.986 306.477 358.632 304.913 360.502C304.618 360.864 304.709 361.136 304.913 361.249C305.456 361.567 305.502 360.751 310.847 357.58C311.387 359.414 311.692 361.309 311.753 363.22C311.64 363.628 311.572 364.67 311.209 364.964L311.119 365.055ZM316.759 358.984C315.747 360.143 314.473 361.044 313.044 361.612C312.835 359.997 312.51 358.4 312.07 356.833C313.542 356.085 315.83 355.134 316.6 356.516C316.89 356.833 317.07 357.236 317.115 357.664C317.16 358.092 317.067 358.523 316.849 358.894L316.759 358.984Z" fill="#444444"/>
</svg>
