<svg width="79" height="79" viewBox="0 0 79 79" fill="none" xmlns="http://www.w3.org/2000/svg">
<g clip-path="url(#clip0_14524_731)">
<mask id="mask0_14524_731" style="mask-type:luminance" maskUnits="userSpaceOnUse" x="0" y="0" width="79" height="79">
<path d="M79 0H0V79H79V0Z" fill="white"/>
</mask>
<g mask="url(#mask0_14524_731)">
<path d="M39.5023 0L40.555 29.4827L47.7148 0.86317L42.6149 29.9205L55.5686 3.41495L44.5386 30.777L62.72 7.54383L46.2422 32.0147L68.8564 13.0693L47.6512 33.5795L73.7105 19.75L48.7039 35.4031L77.0692 27.2938L49.3548 37.4058L78.7859 35.3711L49.5748 39.5L78.7859 43.6289L49.3548 41.5943L77.0692 51.7063L48.7039 43.5969L73.7105 59.25L47.6512 45.4207L68.8564 65.9306L46.2422 46.9852L62.72 71.4563L44.5386 48.2232L55.5686 75.5852L42.6149 49.0795L47.7148 78.1369L40.555 49.5172L39.5023 79L38.4495 49.5172L31.2898 78.1369L36.3898 49.0795L23.4362 75.5852L34.4661 48.2232L16.2848 71.4563L32.7625 46.9852L10.1481 65.9306L31.3535 45.4207L5.29437 59.25L30.3007 43.5969L1.93563 51.7063L29.6499 41.5943L0.21875 43.6289L29.4298 39.5L0.21875 35.3711L29.6499 37.4058L1.93563 27.2938L30.3007 35.4031L5.29437 19.75L31.3535 33.5795L10.1481 13.0693L32.7625 32.0147L16.2848 7.54383L34.4661 30.777L23.4362 3.41495L36.3898 29.9205L31.2898 0.86317L38.4495 29.4827L39.5023 0Z" fill="url(#paint0_linear_14524_731)"/>
</g>
</g>
<defs>
<linearGradient id="paint0_linear_14524_731" x1="39.5023" y1="0" x2="39.5023" y2="79" gradientUnits="userSpaceOnUse">
<stop stop-color="#B8DBFC"/>
<stop offset="1" stop-color="#F8FBFE"/>
</linearGradient>
<clipPath id="clip0_14524_731">
<rect width="79" height="79" fill="white"/>
</clipPath>
</defs>
</svg>
