<svg width="169" height="169" viewBox="0 0 169 169" fill="none" xmlns="http://www.w3.org/2000/svg">
<path d="M84.498 0L86.7499 63.0705L102.066 1.84653L91.1566 64.0071L118.868 7.30541L95.2717 65.8394L134.166 16.1381L98.9162 68.4871L147.293 27.9584L101.93 71.8347L157.677 42.25L104.182 75.7358L164.863 58.3881L105.575 80.02L168.535 75.6673L106.045 84.5L168.535 93.3328L105.575 88.9802L164.863 110.612L104.182 93.2643L157.677 126.75L101.93 97.1657L147.293 141.041L98.9162 100.513L134.166 152.862L95.2717 103.161L118.868 161.695L91.1566 104.993L102.066 167.154L86.7499 105.929L84.498 169L82.2456 105.929L66.9294 167.154L77.8395 104.993L50.1287 161.695L73.7242 103.161L34.8302 152.862L70.0799 100.513L21.7023 141.041L67.0657 97.1657L11.3189 126.75L64.8134 93.2643L4.13376 110.612L63.4213 88.9802L0.460938 93.3328L62.9505 84.5L0.460938 75.6673L63.4213 80.02L4.13376 58.3881L64.8134 75.7358L11.3189 42.25L67.0657 71.8347L21.7023 27.9584L70.0799 68.4871L34.8302 16.1381L73.7242 65.8394L50.1287 7.30541L77.8395 64.0071L66.9294 1.84653L82.2456 63.0705L84.498 0Z" fill="#175BCC"/>
</svg>
