<svg width="308" height="309" viewBox="0 0 308 309" fill="none" xmlns="http://www.w3.org/2000/svg">
<g clip-path="url(#clip0_14524_724)">
<g clip-path="url(#clip1_14524_724)">
<path d="M242.968 64.5144C231.26 58.5414 216.924 63.1912 210.951 74.8991L184.581 126.592C178.606 138.3 183.256 152.634 194.965 158.607L246.657 184.979C258.365 190.953 272.7 186.303 278.673 174.594L305.045 122.902C311.018 111.193 306.369 96.8595 294.661 90.8865L242.968 64.5144ZM61.6511 123.326C49.9427 117.353 35.6084 122.003 29.6349 133.711L3.26385 185.404C-2.70969 197.112 1.93964 211.446 13.6483 217.419L65.3402 243.79C77.0489 249.764 91.3832 245.114 97.3564 233.406L123.728 181.714C129.701 170.005 125.052 155.671 113.343 149.698L61.6511 123.326ZM122.905 3.26252C111.195 -2.71159 96.8609 1.9377 90.8878 13.6475L64.5161 65.3388C58.5427 77.0469 63.1924 91.3822 74.9009 97.355L126.593 123.726C138.302 129.7 152.636 125.051 158.61 113.341L184.981 61.6497C190.954 49.9418 186.304 35.6065 174.596 29.6335L122.905 3.26252ZM181.716 184.579C170.006 178.606 155.673 183.255 149.699 194.964L123.328 246.655C117.354 258.364 122.004 272.698 133.712 278.672L185.404 305.043C197.113 311.016 211.447 306.367 217.421 294.658L243.792 242.966C249.765 231.258 245.116 216.924 233.407 210.95L181.716 184.579Z" fill="url(#paint0_linear_14524_724)"/>
</g>
</g>
<defs>
<linearGradient id="paint0_linear_14524_724" x1="275.342" y1="229.326" x2="45.3808" y2="109.466" gradientUnits="userSpaceOnUse">
<stop offset="0.0509862" stop-color="#CBF1FF"/>
<stop offset="1" stop-color="#FBFCFF"/>
</linearGradient>
<clipPath id="clip0_14524_724">
<rect width="308" height="309" fill="white"/>
</clipPath>
<clipPath id="clip1_14524_724">
<rect width="340" height="340" fill="white" transform="matrix(0.951213 -0.308534 -0.308534 -0.951213 44.8984 368.312)"/>
</clipPath>
</defs>
</svg>
