<svg width="50" height="50" viewBox="0 0 50 50" fill="none" xmlns="http://www.w3.org/2000/svg">
<g clip-path="url(#clip0_14570_713)">
<mask id="mask0_14570_713" style="mask-type:luminance" maskUnits="userSpaceOnUse" x="0" y="0" width="50" height="50">
<path d="M-0.000490129 24.1578L23.875 49.75L49.4672 25.8745L25.5917 0.282304L-0.000490129 24.1578Z" fill="white"/>
</mask>
<g mask="url(#mask0_14570_713)">
<path fill-rule="evenodd" clip-rule="evenodd" d="M26.3847 41.3413L29.4105 44.5847L31.1366 42.9745L28.1107 39.731C26.9299 38.4654 26.9988 36.4822 28.2644 35.3014L28.2707 35.2956L31.5078 32.2756L34.7447 29.2559L34.7512 29.2498C36.0168 28.0691 38.0001 28.1378 39.1808 29.4035L42.2067 32.6469L43.9326 31.0368L40.9068 27.7933C39.726 26.5277 39.7949 24.5444 41.0606 23.3636L41.0667 23.3579L44.3039 20.3379L42.6937 18.6119L39.4566 21.632L39.4504 21.6377C38.1848 22.8184 36.2015 22.7497 35.0207 21.4841L31.9949 18.2407L28.9691 14.9973C27.7883 13.7316 27.8572 11.7483 29.1229 10.5675L29.129 10.5618L32.3662 7.54182L30.756 5.8158L27.5188 8.83582L27.5127 8.84154C26.247 10.0223 24.2637 9.95358 23.0829 8.68793L20.0571 5.44455L18.3312 7.05471L21.357 10.2981C22.5377 11.5637 22.4688 13.547 21.2033 14.7277L21.197 14.7335L17.9599 17.7535L14.7227 20.7735L14.7165 20.7794C13.4508 21.9601 11.4676 21.8913 10.2869 20.6256L7.26107 17.3822L5.53503 18.9925L8.56084 22.2359C9.7416 23.5015 9.67278 25.4848 8.40713 26.6655L8.40089 26.6713L5.16376 29.6913L6.77399 31.4173L10.0109 28.3975L10.0173 28.3915C11.283 27.2107 13.2662 27.2796 14.447 28.5452L17.4728 31.7886L20.4987 35.032C21.6794 36.2977 21.6105 38.2809 20.3449 39.4616L20.3387 39.4674L17.1015 42.4874L18.7117 44.2134L21.9487 41.1936L21.9551 41.1876C23.2207 40.0068 25.2039 40.0756 26.3847 41.3413ZM30.2689 19.8508L27.2431 16.6074C26.0624 15.3418 24.079 15.273 22.8135 16.4537L22.807 16.4598L19.5701 19.4796L16.333 22.4995L16.3267 22.5054C15.0611 23.6861 14.9922 25.6693 16.173 26.935L19.1988 30.1784L22.2247 33.4218C23.4054 34.6874 25.3886 34.7562 26.6543 33.5755L26.6605 33.5697L29.8976 30.5497L33.1348 27.5297L33.1411 27.5238C34.4066 26.3432 34.4756 24.3599 33.2948 23.0942L30.2689 19.8508Z" fill="url(#paint0_linear_14570_713)"/>
</g>
</g>
<defs>
<linearGradient id="paint0_linear_14570_713" x1="11.9377" y1="36.9524" x2="37.53" y2="13.0769" gradientUnits="userSpaceOnUse">
<stop stop-color="#55709D"/>
<stop offset="1" stop-color="#B0CEFF"/>
</linearGradient>
<clipPath id="clip0_14570_713">
<rect width="35" height="35" fill="white" transform="translate(0 24.1562) rotate(-43.0124)"/>
</clipPath>
</defs>
</svg>
