<svg width="17" height="17" viewBox="0 0 17 17" fill="none" xmlns="http://www.w3.org/2000/svg">
<g clip-path="url(#clip0_14524_745)">
<mask id="mask0_14524_745" style="mask-type:luminance" maskUnits="userSpaceOnUse" x="0" y="0" width="17" height="17">
<path d="M0 0L0 17H17V0H0Z" fill="white"/>
</mask>
<g mask="url(#mask0_14524_745)">
<path fill-rule="evenodd" clip-rule="evenodd" d="M0 17C4.69442 17 8.5 13.1944 8.5 8.5C8.5 13.1944 12.3056 17 17 17V15.98C12.8689 15.98 9.52 12.6311 9.52 8.5C9.52 4.36891 12.8689 1.02 17 1.02V0C12.3056 0 8.5 3.80562 8.5 8.5C8.5 3.80562 4.69442 0 0 0L0 1.02C4.13109 1.02 7.48 4.36891 7.48 8.5C7.48 12.6311 4.13109 15.98 0 15.98L0 17ZM0 14.96C3.56776 14.96 6.46 12.0678 6.46 8.5C6.46 4.93221 3.56776 2.04 0 2.04L0 3.06C3.00443 3.06 5.44 5.49559 5.44 8.5C5.44 11.5044 3.00443 13.94 0 13.94L0 14.96ZM0 12.92C2.4411 12.92 4.42 10.9411 4.42 8.5C4.42 6.05888 2.4411 4.08 0 4.08L0 5.1C1.87777 5.1 3.4 6.62226 3.4 8.5C3.4 10.3778 1.87777 11.9 0 11.9L0 12.92ZM10.54 8.5C10.54 4.93221 13.4322 2.04 17 2.04V3.06C13.9956 3.06 11.56 5.49559 11.56 8.5C11.56 11.5044 13.9956 13.94 17 13.94V14.96C13.4322 14.96 10.54 12.0678 10.54 8.5ZM12.58 8.5C12.58 6.05888 14.5589 4.08 17 4.08V5.1C15.1223 5.1 13.6 6.62226 13.6 8.5C13.6 10.3778 15.1223 11.9 17 11.9V12.92C14.5589 12.92 12.58 10.9411 12.58 8.5Z" fill="url(#paint0_linear_14524_745)"/>
</g>
</g>
<defs>
<linearGradient id="paint0_linear_14524_745" x1="0" y1="8.5" x2="17" y2="8.5" gradientUnits="userSpaceOnUse">
<stop stop-color="#566D93"/>
<stop offset="1" stop-color="#8DB8FF"/>
</linearGradient>
<clipPath id="clip0_14524_745">
<rect width="17" height="17" fill="white" transform="matrix(0 -1 1 0 0 17)"/>
</clipPath>
</defs>
</svg>
