<svg width="59" height="59" viewBox="0 0 59 59" fill="none" xmlns="http://www.w3.org/2000/svg">
<g clip-path="url(#clip0_14524_725)">
<mask id="mask0_14524_725" style="mask-type:luminance" maskUnits="userSpaceOnUse" x="0" y="0" width="59" height="59">
<path d="M59 0H0V59H59V0Z" fill="white"/>
</mask>
<g mask="url(#mask0_14524_725)">
<path fill-rule="evenodd" clip-rule="evenodd" d="M32.45 0C34.0793 0 35.4 1.32076 35.4 2.95V8.13421C35.4 10.7624 38.5774 12.0786 40.4359 10.2202L44.1016 6.55437C45.2539 5.40234 47.1215 5.40234 48.2738 6.55437L52.4457 10.7263C53.5977 11.8784 53.5977 13.7462 52.4457 14.8982L48.7797 18.564C46.9215 20.4224 48.2375 23.6 50.8657 23.6H56.05C57.6793 23.6 59 24.9207 59 26.55V32.45C59 34.0793 57.6793 35.4 56.05 35.4H50.8657C48.2375 35.4 46.9215 38.5774 48.7797 40.4359L52.4457 44.1016C53.5977 45.2539 53.5977 47.1215 52.4457 48.2738L48.2738 52.4457C47.1215 53.5977 45.2539 53.5977 44.1016 52.4457L40.4359 48.7797C38.5774 46.9215 35.4 48.2375 35.4 50.8657V56.05C35.4 57.6793 34.0793 59 32.45 59H26.55C24.9207 59 23.6 57.6793 23.6 56.05V50.8657C23.6 48.2375 20.4224 46.9215 18.564 48.7797L14.8982 52.4457C13.7462 53.5977 11.8784 53.5977 10.7263 52.4457L6.5544 48.2738C5.40233 47.1215 5.40233 45.2539 6.5544 44.1016L10.2202 40.4359C12.0786 38.5774 10.7624 35.4 8.13421 35.4H2.95C1.32076 35.4 0 34.0793 0 32.45V26.55C0 24.9207 1.32076 23.6 2.95 23.6H8.13421C10.7624 23.6 12.0786 20.4224 10.2202 18.564L6.5544 14.8982C5.40233 13.7462 5.40233 11.8784 6.5544 10.7263L10.7263 6.55437C11.8784 5.40234 13.7462 5.40234 14.8982 6.55437L18.564 10.2202C20.4224 12.0786 23.6 10.7624 23.6 8.13421V2.95C23.6 1.32076 24.9207 0 26.55 0H32.45ZM29.5 44.25C37.6461 44.25 44.25 37.6461 44.25 29.5C44.25 21.3538 37.6461 14.75 29.5 14.75C21.3538 14.75 14.75 21.3538 14.75 29.5C14.75 37.6461 21.3538 44.25 29.5 44.25Z" fill="url(#paint0_linear_14524_725)"/>
</g>
</g>
<defs>
<linearGradient id="paint0_linear_14524_725" x1="29.5" y1="0" x2="29.5" y2="59" gradientUnits="userSpaceOnUse">
<stop stop-color="#B8DBFC"/>
<stop offset="1" stop-color="#F8FBFE"/>
</linearGradient>
<clipPath id="clip0_14524_725">
<rect width="59" height="59" fill="white"/>
</clipPath>
</defs>
</svg>
