<svg width="134" height="134" viewBox="0 0 134 134" fill="none" xmlns="http://www.w3.org/2000/svg">
<g clip-path="url(#clip0_3_487)">
<mask id="mask0_3_487" style="mask-type:luminance" maskUnits="userSpaceOnUse" x="0" y="-1" width="134" height="135">
<path d="M12.5407 -0.00226831L0.000793457 121.352L121.355 133.891L133.894 12.5376L12.5407 -0.00226831Z" fill="white"/>
</mask>
<g mask="url(#mask0_3_487)">
<path fill-rule="evenodd" clip-rule="evenodd" d="M27.8355 108.686L26.2462 124.066L34.4307 124.912L36.02 109.532C36.6401 103.53 42.0081 99.168 48.0096 99.7882L48.0392 99.7912L63.389 101.377L78.7379 102.963L78.7688 102.967C84.7698 103.587 89.1327 108.955 88.5126 114.956L86.9233 130.336L95.1074 131.182L96.6967 115.802C97.3168 109.8 102.685 105.438 108.687 106.058L108.716 106.061L124.066 107.647L124.912 99.4632L109.562 97.877L109.532 97.874C103.531 97.2539 99.168 91.886 99.7881 85.8844L101.377 70.5047L102.967 55.1251C103.587 49.1236 108.955 44.7612 114.957 45.3813L114.986 45.3844L130.336 46.9706L131.182 38.7861L115.832 37.1999L115.802 37.1969C109.801 36.5768 105.438 31.2088 106.058 25.2073L107.647 9.82775L99.4632 8.98206L97.874 24.3616C97.2538 30.3631 91.8854 34.7255 85.8844 34.1054L85.8547 34.1023L70.5047 32.5162L55.1547 30.93L55.1252 30.927C49.1237 30.3068 44.7612 24.9389 45.3814 18.9374L46.9706 3.55784L38.786 2.7121L37.1968 18.0916C36.5767 24.0931 31.2087 28.4557 25.2072 27.8355L25.1777 27.8324L9.82775 26.2462L8.98203 34.4307L24.3311 36.0168L24.3615 36.0198C30.363 36.64 34.7255 42.0079 34.1054 48.0095L32.5161 63.389L30.9269 78.7688C30.3067 84.7704 24.9388 89.1327 18.9373 88.5125L18.9077 88.5095L3.5578 86.9233L2.71211 95.1074L18.0612 96.6935L18.0916 96.6966C24.0931 97.3168 28.4556 102.685 27.8355 108.686ZM93.1932 69.659L94.7825 54.2794C95.4026 48.2779 91.0397 42.9099 85.0387 42.2898L85.0078 42.2867L69.6589 40.7006L54.3091 39.1145L54.2795 39.1114C48.278 38.4912 42.9101 42.8537 42.2899 48.8552L40.7007 64.2348L39.1114 79.6145C38.4913 85.6161 42.8537 90.9839 48.8552 91.604L48.8848 91.6071L64.2347 93.1933L79.5848 94.7794L79.6145 94.7825C85.6154 95.4026 90.9838 91.0403 91.604 85.0388L93.1932 69.659Z" fill="#175BCC" fill-opacity="0.12"/>
</g>
</g>
<defs>
<clipPath id="clip0_3_487">
<rect width="122" height="122" fill="white" transform="translate(12.5399) rotate(5.89961)"/>
</clipPath>
</defs>
</svg>
