<svg width="27" height="27" viewBox="0 0 27 27" fill="none" xmlns="http://www.w3.org/2000/svg">
<path fill-rule="evenodd" clip-rule="evenodd" d="M6.24437 24.6504C10.2185 20.7522 11.7689 21.2585 12.675 26.751C13.0371 20.6149 19.4867 17.3415 24.6532 20.6717C20.756 16.6973 21.2626 15.147 26.7541 14.2412C20.619 13.8787 17.3458 7.4295 20.6751 2.26364C16.7016 6.16024 15.1511 5.65386 14.244 0.161981C13.8819 6.29803 7.43221 9.57141 2.26576 6.24126C6.16399 10.2151 5.65746 11.7655 0.165428 12.6729C6.30164 13.0347 9.57481 19.484 6.24437 24.6504ZM15.3852 17.2508C17.4808 16.1872 18.3173 13.6264 17.2538 11.5308C16.1902 9.43525 13.6293 8.59863 11.5338 9.66219C9.43823 10.7257 8.60164 13.2867 9.66517 15.3822C10.7287 17.4778 13.2896 18.3143 15.3852 17.2508Z" fill="url(#paint0_linear_13895_474)"/>
<defs>
<linearGradient id="paint0_linear_13895_474" x1="0.934983" y1="8.98008" x2="18.6641" y2="23.7113" gradientUnits="userSpaceOnUse">
<stop stop-color="#6BA3FF"/>
<stop offset="1" stop-color="#94A3BB"/>
</linearGradient>
</defs>
</svg>
